<svg width="44" height="18" fill="none" xmlns="http://www.w3.org/2000/svg"><path d="M21.4.51L17.02 13.7H13.7l-2.94-8.93L7.7 13.7H4.4L0 .5h3.21l3.03 9.26L9.39.51h2.87l3.06 9.34L18.44.5h2.96zM26.3 3.41c1.6 0 2.82.38 3.68 1.13.85.74 1.28 1.86 1.28 3.37v5.78h-2.8v-1.26c-.55.94-1.6 1.4-3.13 1.4a5 5 0 01-2.06-.39 3.06 3.06 0 01-1.32-1.09c-.31-.46-.46-1-.46-1.58 0-.94.35-1.68 1.07-2.22.72-.54 1.84-.81 3.34-.81h2.38c0-.64-.2-1.13-.6-1.47-.4-.35-.99-.53-1.78-.53a5.19 5.19 0 00-2.96.94l-1.07-2.05a6.52 6.52 0 012-.9c.8-.21 1.6-.32 2.44-.32zm-.22 8.45c.5 0 .96-.11 1.35-.34.4-.24.68-.58.85-1.03V9.45h-2.05c-1.22 0-1.84.4-1.84 1.19 0 .37.15.67.44.9.3.21.72.32 1.25.32zM43.99 3.56l-4.65 10.75a5.26 5.26 0 01-1.76 2.46 4.3 4.3 0 01-2.5.72 5.3 5.3 0 01-1.6-.25 3.52 3.52 0 01-1.27-.67l1.09-2.1a2.6 2.6 0 001.68.65c.4 0 .74-.1 1-.3.25-.2.48-.51.68-.96l.04-.1-4.46-10.2h3.08l2.9 6.87 2.9-6.87h2.87z" fill="#141517"/><path d="M44 3.56l-4.65 10.75a5.26 5.26 0 01-1.76 2.46 4.3 4.3 0 01-2.5.72 5.3 5.3 0 01-1.59-.25 3.52 3.52 0 01-1.28-.67l1.09-2.1a2.6 2.6 0 001.68.65c.41 0 .74-.1 1-.3.25-.2.48-.51.68-.96l.04-.1 1.51-3.33 2.91-6.87H44z" fill="#FE7865"/></svg>